<?xml version="1.0" encoding="UTF-8"?>
<svg id="Capa_1" xmlns="http://www.w3.org/2000/svg" version="1.1" viewBox="0 0 41.6 33">
  <!-- Generator: Adobe Illustrator 29.3.1, SVG Export Plug-In . SVG Version: 2.1.0 Build 151)  -->
  <path d="M20.8,4.8c-1.7,0-3.4.7-4.6,1.9-1.2,1.2-1.9,2.9-1.9,4.6s.7,3.4,1.9,4.6c1.2,1.2,2.9,1.9,4.6,1.9s3.4-.7,4.6-1.9,1.9-2.9,1.9-4.6-.7-3.4-1.9-4.6c-1.2-1.2-2.9-1.9-4.6-1.9ZM23.4,13.8h0c-1.3,1.3-3.6,1.3-4.9,0s-1-1.6-1-2.5.4-1.8,1-2.5c.7-.7,1.5-1,2.5-1s1.8.4,2.5,1c.7.7,1,1.5,1,2.5s-.4,1.8-1,2.5Z"/>
  <path d="M40.8,4.1c-.7-1.4-1.9-2.6-3.3-3.3C35.9,0,34.1,0,30.5,0H11.1C7.5,0,5.7,0,4.1.8c-1.4.7-2.6,1.9-3.3,3.3S0,7.5,0,11.1v10.8C0,25.5,0,27.3.8,28.9s1.9,2.6,3.3,3.3,3.4.8,7,.8h19.4c3.6,0,5.4,0,7-.8,1.4-.7,2.6-1.9,3.3-3.3s.8-3.4.8-7v-10.8c0-3.6,0-5.4-.8-7ZM18.3,30h-7.2c-.3,0-.7,0-1,0,1.7-4.2,5.8-7.2,10.7-7.2s9,3,10.7,7.2c-.3,0-.6,0-1,0h-12.2ZM38.6,11.9v9.9c0,3.1,0,4.8-.5,5.7-.4.9-1.1,1.5-2,2-.4.2-.9.3-1.5.4-1.9-5.8-7.3-10.1-13.8-10.1s-11.9,4.3-13.8,10.1c-.7,0-1.1-.2-1.5-.4,0,0-.1,0-.2-.1h-.3c-.7-.6-1.1-1.2-1.6-1.9-.5-1-.5-2.5-.5-5.6v-4.8c0,0,0-6,0-6,0-3.1,0-4.7.4-5.6.4-.9,1.1-1.5,2-2,1-.5,2.5-.5,5.6-.5h19.4c3.1,0,4.7,0,5.6.5.9.4,1.5,1.1,2,2,.4.7.5,3.5.5,3.5v2.9Z"/>
</svg>