<?xml version="1.0" encoding="UTF-8"?>
<svg id="Capa_1" xmlns="http://www.w3.org/2000/svg" version="1.1" viewBox="0 0 36.4 33">
  <!-- Generator: Adobe Illustrator 29.3.1, SVG Export Plug-In . SVG Version: 2.1.0 Build 151)  -->
  <path d="M33.4,2.3c-2.8-2.3-6.9-2.3-15.2-2.3S5.8,0,3,2.3C0,4.7,0,8.3,0,14.8S0,23.3,3,25.6c1,.8,2.2,1.4,3.8,1.7v4.4c0,.4.2.8.6,1.1.3.2.4.2.7.2s.4,0,.6-.2c1.3-.7,2.2-1.4,3.2-2.1,2.1-1.6,4.2-2.8,6.3-2.8,8.3,0,12.4,0,15.2-2.3,3-2.4,3-4.3,3-10.8s0-10.2-3-12.5ZM31.9,23.7c-2.1,1.7-5.9,1.7-13.6,1.7s-5.7,1.7-7.9,3.3c-.3.3-.7.5-1,.8v-3.1c0-.7-.5-1.2-1.1-1.3-1.7-.3-2.9-.7-3.7-1.4-2-1.5-2-2.7-2-8.9s0-9,2-10.6c2.1-1.7,5.9-1.7,13.6-1.7h0c7.6,0,11.5,0,13.6,1.7,2,1.6,2,4.1,2,10.6s0,7.4-2,8.9Z"/>
  <g>
    <path d="M18.2,11.8c-.8,0-1.5.7-1.5,1.5v1c0,.8.7,1.5,1.5,1.5s1.5-.7,1.5-1.5v-1c0-.8-.7-1.5-1.5-1.5Z"/>
    <path d="M10.2,11.8c-.8,0-1.5.7-1.5,1.5v1c0,.8.7,1.5,1.5,1.5s1.5-.7,1.5-1.5v-1c0-.8-.7-1.5-1.5-1.5Z"/>
    <path d="M26.2,11.8c-.8,0-1.5.7-1.5,1.5v1c0,.8.7,1.5,1.5,1.5s1.5-.7,1.5-1.5v-1c0-.8-.7-1.5-1.5-1.5Z"/>
  </g>
</svg>