<svg id="Capa_1" xmlns="http://www.w3.org/2000/svg" version="1.1" viewBox="0 0 42 33">
  <path class="st0" d="M41.5,8.2c0-.2,0-.4,0-.7,0-1.4-.3-2.5-.8-3.4-.7-1.4-1.9-2.6-3.3-3.3C35.9,0,34.1,0,30.5,0H11.1C7.5,0,5.7,0,4.1.8c-1.4.7-2.6,1.9-3.3,3.3-.5,1-.7,2-.8,3.4,0,.2,0,.5,0,.7,0,.8,0,1.8,0,2.9v10.8c0,3.6,0,5.4.8,7,.7,1.4,1.9,2.6,3.3,3.3,1.6.8,3.4.8,7,.8h19.4c3.6,0,5.4,0,7-.8,1.4-.7,2.6-1.9,3.3-3.3.8-1.6.8-3.4.8-7v-10.8c0-1.1,0-2.1,0-2.9ZM3.5,5.5c.4-.9,1.1-1.5,2-2,1-.5,2.5-.5,5.6-.5h19.4c3.1,0,4.7,0,5.6.5.9.4,1.5,1.1,2,2,.2.4.3,1,.4,1.7l-13.2,8.8c-1.8,1.2-2.6,1.8-3.4,1.9-.7.2-1.4.2-2.1,0-.8-.2-1.7-.8-3.4-2L3.1,7.2c0-.7.2-1.3.4-1.7ZM38.6,11.1v10.8c0,3.1,0,4.7-.5,5.6-.4.9-1.1,1.5-2,2-1,.5-2.5.5-5.6.5H11.1c-3.1,0-4.7,0-5.6-.5-.9-.4-1.5-1.1-2-2-.5-1-.5-2.5-.5-5.6v-11.2l11.7,7.8c2,1.3,3.1,2.1,4.4,2.4,1.1.3,2.4.3,3.5,0,1.3-.3,2.4-1,4.4-2.4l11.6-7.8v.4Z"/>
</svg>