<svg id="Capa_1" xmlns="http://www.w3.org/2000/svg" version="1.1" viewBox="0 0 42 33">
  <path class="st0" d="M12.8,16c1.5,0,2.9-.6,3.9-1.6,1-1,1.6-2.4,1.6-3.9s-.6-2.9-1.6-3.9c-1-1-2.4-1.6-3.9-1.6s-2.9.6-3.9,1.6-1.6,2.4-1.6,3.9.6,2.9,1.6,3.9c1,1,2.4,1.6,3.9,1.6ZM11,8.7c.5-.5,1.1-.7,1.8-.7s1.3.3,1.8.7c.5.5.7,1.1.7,1.8s-.3,1.3-.7,1.8c-.9.9-2.6.9-3.5,0-.5-.5-.7-1.1-.7-1.8s.3-1.3.7-1.8Z"/>
  <path class="st0" d="M40.8,4.1c-.7-1.4-1.9-2.6-3.3-3.3C35.9,0,34.1,0,30.5,0H11.1C7.5,0,5.7,0,4.1.8c-1.4.7-2.6,1.9-3.3,3.3-.8,1.6-.8,3.4-.8,7v10.8c0,3.6,0,5.4.8,7,.7,1.4,1.9,2.6,3.3,3.3,1.6.8,3.4.8,7,.8h19.4c3.6,0,5.4,0,7-.8,1.4-.7,2.6-1.9,3.3-3.3.8-1.6.8-3.4.8-7v-10.8c0-3.6,0-5.4-.8-7ZM3.5,5.5c.4-.9,1.1-1.5,2-2,1-.5,2.5-.5,5.6-.5h19.4c3.1,0,4.7,0,5.6.5.9.4,1.5,1.1,2,2,.4.7.5,1.8.5,3.5-6.4-.8-12.4.9-16.7,5-2.4,2.2-4.2,5.1-5.3,8.3-3.5-3.6-8.8-5.7-13.5-5.2v-6c0-3.1,0-4.7.5-5.6ZM5.5,29.5c-.9-.4-1.5-1.1-2-2-.5-1-.5-2.5-.5-5.6v-1.8c5-.7,10.2,2.3,12.6,5.7-.2,1.3-.4,2.7-.4,4.2h-4.1c-3.1,0-4.7,0-5.6-.5ZM38.1,27.5c-.4.9-1.1,1.5-2,2-1,.5-2.5.5-5.6.5h-12.2c0-5.5,2-10.5,5.6-13.9,3.7-3.5,8.9-4.9,14.5-4.2,0,0,0,0,.1,0v9.9c0,3.1,0,4.7-.5,5.6Z"/>
</svg>